# xmcd
#
# Track frame offsets:
#	150
#	16513
#	31359
#	56136
#	71135
#	87327
#	105912
#	123093
#	140862
#	162571
#	184485
#	204669
#	224866
#	239990
#	256669
#	272396
#
# Disc length: 3865 seconds
#
# Revision: 5
# Processed by: cddbd v1.5.2PL0 Copyright (c) Steve Scherf et al.
# Submitted via: audiograbber 1.83.01
#
DISCID=f40f1710
DTITLE=Modern Talking - America
DYEAR=2001
DGENRE=Pop
TTITLE0=Win The Race
TTITLE1=Last Exit To Brooklyn
TTITLE2=Maria
TTITLE3=Sms To My Heart
TTITLE4=Cinderella Girl
TTITLE5=Why Does It Feel So Good
TTITLE6=Rain In My Heart
TTITLE7=Witchqueen Of Eldorado
TTITLE8=Run To You
TTITLE9=America
TTITLE10=For A Life Time
TTITLE11=From Coast To Coast
TTITLE12=There's Something In The Air
TTITLE13=I Need You Know
TTITLE14=New York City Girl
TTITLE15=Send Me A Letter From Heaven
EXTD=
EXTT0=
EXTT1=
EXTT2=
EXTT3=
EXTT4=
EXTT5=
EXTT6=
EXTT7=
EXTT8=
EXTT9=
EXTT10=
EXTT11=
EXTT12=
EXTT13=
EXTT14=
EXTT15=
PLAYORDER=
